<mxfile host="app.diagrams.net" modified="2024-03-25T05:34:45.588Z" agent="Mozilla/5.0 (Windows NT 10.0; Win64; x64) AppleWebKit/537.36 (KHTML, like Gecko) Chrome/122.0.0.0 Safari/537.36" etag="p6_6CKnjQ38QVI8LB3W6" version="24.1.0" type="device">
  <diagram name="Page-1" id="eexshp824wWUPuv5LnUs">
    <mxGraphModel dx="1195" dy="650" grid="1" gridSize="10" guides="1" tooltips="1" connect="1" arrows="1" fold="1" page="1" pageScale="1" pageWidth="850" pageHeight="1100" math="0" shadow="0">
      <root>
        <mxCell id="0" />
        <mxCell id="1" parent="0" />
        <mxCell id="ntlgDtmpYtMD1ZbxN-xk-1" value="WAN&lt;div&gt;(Home Network)&lt;/div&gt;" style="rounded=0;whiteSpace=wrap;html=1;" parent="1" vertex="1">
          <mxGeometry x="270" y="60" width="160" height="80" as="geometry" />
        </mxCell>
        <mxCell id="ntlgDtmpYtMD1ZbxN-xk-2" value="" style="endArrow=none;html=1;rounded=0;entryX=0.5;entryY=1;entryDx=0;entryDy=0;exitX=0.5;exitY=0;exitDx=0;exitDy=0;" parent="1" source="ntlgDtmpYtMD1ZbxN-xk-3" target="ntlgDtmpYtMD1ZbxN-xk-1" edge="1">
          <mxGeometry width="50" height="50" relative="1" as="geometry">
            <mxPoint x="350" y="220" as="sourcePoint" />
            <mxPoint x="260" y="290" as="targetPoint" />
          </mxGeometry>
        </mxCell>
        <mxCell id="ntlgDtmpYtMD1ZbxN-xk-3" value="Switch&lt;br&gt;Red Team&lt;div&gt;&lt;i&gt;The Internet&lt;/i&gt;&lt;/div&gt;" style="rounded=0;whiteSpace=wrap;html=1;" parent="1" vertex="1">
          <mxGeometry x="270" y="210" width="160" height="80" as="geometry" />
        </mxCell>
        <mxCell id="ntlgDtmpYtMD1ZbxN-xk-4" value="Filter Proxmox&lt;div&gt;&lt;br&gt;&lt;/div&gt;&lt;div&gt;&lt;br&gt;&lt;/div&gt;&lt;div&gt;&lt;br&gt;&lt;/div&gt;&lt;div&gt;&lt;br&gt;&lt;/div&gt;" style="rounded=0;whiteSpace=wrap;html=1;" parent="1" vertex="1">
          <mxGeometry x="490" y="210" width="160" height="80" as="geometry" />
        </mxCell>
        <mxCell id="ntlgDtmpYtMD1ZbxN-xk-5" value="" style="endArrow=none;html=1;rounded=0;entryX=0;entryY=0.25;entryDx=0;entryDy=0;exitX=1;exitY=0.25;exitDx=0;exitDy=0;" parent="1" source="ntlgDtmpYtMD1ZbxN-xk-3" target="ntlgDtmpYtMD1ZbxN-xk-4" edge="1">
          <mxGeometry width="50" height="50" relative="1" as="geometry">
            <mxPoint x="410" y="340" as="sourcePoint" />
            <mxPoint x="460" y="290" as="targetPoint" />
          </mxGeometry>
        </mxCell>
        <mxCell id="ntlgDtmpYtMD1ZbxN-xk-8" style="edgeStyle=orthogonalEdgeStyle;rounded=0;orthogonalLoop=1;jettySize=auto;html=1;" parent="1" source="ntlgDtmpYtMD1ZbxN-xk-6" edge="1">
          <mxGeometry relative="1" as="geometry">
            <mxPoint x="465" y="230" as="targetPoint" />
            <Array as="points">
              <mxPoint x="465" y="220" />
            </Array>
          </mxGeometry>
        </mxCell>
        <mxCell id="ntlgDtmpYtMD1ZbxN-xk-6" value="VLAN 11 tagged WAN traffic" style="text;html=1;align=center;verticalAlign=middle;resizable=1;points=[];autosize=1;strokeColor=none;fillColor=none;" parent="1" vertex="1">
          <mxGeometry x="380" y="186" width="170" height="20" as="geometry" />
        </mxCell>
        <mxCell id="ntlgDtmpYtMD1ZbxN-xk-9" value="" style="endArrow=none;html=1;rounded=0;entryX=0;entryY=0.75;entryDx=0;entryDy=0;exitX=1;exitY=0.75;exitDx=0;exitDy=0;" parent="1" source="ntlgDtmpYtMD1ZbxN-xk-3" target="ntlgDtmpYtMD1ZbxN-xk-4" edge="1">
          <mxGeometry width="50" height="50" relative="1" as="geometry">
            <mxPoint x="420" y="360" as="sourcePoint" />
            <mxPoint x="470" y="310" as="targetPoint" />
          </mxGeometry>
        </mxCell>
        <mxCell id="ntlgDtmpYtMD1ZbxN-xk-11" value="Untagged LAN traffic" style="text;html=1;align=center;verticalAlign=middle;resizable=1;points=[];autosize=1;strokeColor=none;fillColor=none;" parent="1" vertex="1">
          <mxGeometry x="390" y="289" width="140" height="18" as="geometry" />
        </mxCell>
        <mxCell id="ntlgDtmpYtMD1ZbxN-xk-13" value="Switch&lt;div&gt;Blue Team&lt;/div&gt;" style="rounded=0;whiteSpace=wrap;html=1;" parent="1" vertex="1">
          <mxGeometry x="290" y="360" width="120" height="60" as="geometry" />
        </mxCell>
        <mxCell id="ntlgDtmpYtMD1ZbxN-xk-14" value="" style="endArrow=none;html=1;rounded=0;entryX=0.5;entryY=1;entryDx=0;entryDy=0;exitX=0.5;exitY=0;exitDx=0;exitDy=0;" parent="1" source="ntlgDtmpYtMD1ZbxN-xk-13" target="ntlgDtmpYtMD1ZbxN-xk-3" edge="1">
          <mxGeometry width="50" height="50" relative="1" as="geometry">
            <mxPoint x="290" y="360" as="sourcePoint" />
            <mxPoint x="340" y="310" as="targetPoint" />
          </mxGeometry>
        </mxCell>
        <mxCell id="ntlgDtmpYtMD1ZbxN-xk-15" value="Proxmox&lt;div&gt;&lt;br&gt;&lt;/div&gt;&lt;div&gt;&lt;br&gt;&lt;/div&gt;" style="rounded=0;whiteSpace=wrap;html=1;" parent="1" vertex="1">
          <mxGeometry x="480" y="360" width="136" height="60.75" as="geometry" />
        </mxCell>
        <mxCell id="ntlgDtmpYtMD1ZbxN-xk-16" value="" style="endArrow=none;html=1;rounded=0;entryX=0;entryY=0.25;entryDx=0;entryDy=0;exitX=1;exitY=0.25;exitDx=0;exitDy=0;" parent="1" source="ntlgDtmpYtMD1ZbxN-xk-13" target="ntlgDtmpYtMD1ZbxN-xk-15" edge="1">
          <mxGeometry width="50" height="50" relative="1" as="geometry">
            <mxPoint x="410" y="371" as="sourcePoint" />
            <mxPoint x="440" y="431" as="targetPoint" />
          </mxGeometry>
        </mxCell>
        <mxCell id="ntlgDtmpYtMD1ZbxN-xk-17" style="edgeStyle=orthogonalEdgeStyle;rounded=0;orthogonalLoop=1;jettySize=auto;html=1;" parent="1" source="ntlgDtmpYtMD1ZbxN-xk-18" edge="1">
          <mxGeometry relative="1" as="geometry">
            <mxPoint x="445" y="371" as="targetPoint" />
            <Array as="points">
              <mxPoint x="445" y="361" />
            </Array>
          </mxGeometry>
        </mxCell>
        <mxCell id="ntlgDtmpYtMD1ZbxN-xk-18" value="VLAN 1&lt;span style=&quot;background-color: initial;&quot;&gt;1 tagged WAN traffic&lt;/span&gt;" style="text;html=1;align=center;verticalAlign=middle;resizable=1;points=[];autosize=1;strokeColor=none;fillColor=none;" parent="1" vertex="1">
          <mxGeometry x="360" y="333" width="170" height="30" as="geometry" />
        </mxCell>
        <mxCell id="ntlgDtmpYtMD1ZbxN-xk-19" value="" style="endArrow=none;html=1;rounded=0;entryX=0;entryY=0.75;entryDx=0;entryDy=0;exitX=1;exitY=0.75;exitDx=0;exitDy=0;" parent="1" source="ntlgDtmpYtMD1ZbxN-xk-13" target="ntlgDtmpYtMD1ZbxN-xk-15" edge="1">
          <mxGeometry width="50" height="50" relative="1" as="geometry">
            <mxPoint x="410" y="411" as="sourcePoint" />
            <mxPoint x="450" y="451" as="targetPoint" />
          </mxGeometry>
        </mxCell>
        <mxCell id="ntlgDtmpYtMD1ZbxN-xk-20" style="edgeStyle=orthogonalEdgeStyle;rounded=0;orthogonalLoop=1;jettySize=auto;html=1;" parent="1" source="ntlgDtmpYtMD1ZbxN-xk-21" edge="1">
          <mxGeometry relative="1" as="geometry">
            <mxPoint x="440" y="411" as="targetPoint" />
          </mxGeometry>
        </mxCell>
        <mxCell id="ntlgDtmpYtMD1ZbxN-xk-21" value="Untagged LAN traffic" style="text;html=1;align=center;verticalAlign=middle;resizable=1;points=[];autosize=1;strokeColor=none;fillColor=none;" parent="1" vertex="1">
          <mxGeometry x="370" y="431" width="140" height="18" as="geometry" />
        </mxCell>
        <mxCell id="ntlgDtmpYtMD1ZbxN-xk-25" value="" style="endArrow=classic;html=1;rounded=0;exitX=0.498;exitY=-0.074;exitDx=0;exitDy=0;exitPerimeter=0;" parent="1" source="ntlgDtmpYtMD1ZbxN-xk-11" edge="1">
          <mxGeometry width="50" height="50" relative="1" as="geometry">
            <mxPoint x="470" y="350" as="sourcePoint" />
            <mxPoint x="460" y="270" as="targetPoint" />
          </mxGeometry>
        </mxCell>
        <mxCell id="ntlgDtmpYtMD1ZbxN-xk-27" value="Untagged VLAN traffic" style="text;html=1;align=center;verticalAlign=middle;resizable=1;points=[];autosize=1;strokeColor=none;fillColor=none;" parent="1" vertex="1">
          <mxGeometry x="220" y="150" width="130" height="12" as="geometry" />
        </mxCell>
        <mxCell id="ntlgDtmpYtMD1ZbxN-xk-29" value="Goes to tagged port (11)" style="text;html=1;align=center;verticalAlign=middle;resizable=1;points=[];autosize=1;strokeColor=none;fillColor=none;" parent="1" vertex="1">
          <mxGeometry x="200" y="186" width="160" height="30" as="geometry" />
        </mxCell>
        <mxCell id="ntlgDtmpYtMD1ZbxN-xk-30" value="Untagged VLAN traffic" style="text;html=1;align=center;verticalAlign=middle;resizable=1;points=[];autosize=1;strokeColor=none;fillColor=none;" parent="1" vertex="1">
          <mxGeometry x="220" y="298" width="130" height="12" as="geometry" />
        </mxCell>
        <mxCell id="ntlgDtmpYtMD1ZbxN-xk-31" value="Goes to tagged port (11)" style="text;html=1;align=center;verticalAlign=middle;resizable=1;points=[];autosize=1;strokeColor=none;fillColor=none;" parent="1" vertex="1">
          <mxGeometry x="200" y="333" width="160" height="30" as="geometry" />
        </mxCell>
        <mxCell id="ntlgDtmpYtMD1ZbxN-xk-33" value="Laptop 1" style="rounded=0;whiteSpace=wrap;html=1;" parent="1" vertex="1">
          <mxGeometry x="115" y="220" width="120" height="60" as="geometry" />
        </mxCell>
        <mxCell id="ntlgDtmpYtMD1ZbxN-xk-34" value="Laptop 2" style="rounded=0;whiteSpace=wrap;html=1;" parent="1" vertex="1">
          <mxGeometry x="110" y="360.75" width="120" height="60" as="geometry" />
        </mxCell>
        <mxCell id="ntlgDtmpYtMD1ZbxN-xk-35" value="" style="endArrow=none;html=1;rounded=0;entryX=0;entryY=0.5;entryDx=0;entryDy=0;exitX=1;exitY=0.5;exitDx=0;exitDy=0;" parent="1" source="ntlgDtmpYtMD1ZbxN-xk-33" target="ntlgDtmpYtMD1ZbxN-xk-3" edge="1">
          <mxGeometry width="50" height="50" relative="1" as="geometry">
            <mxPoint x="190" y="290" as="sourcePoint" />
            <mxPoint x="240" y="240" as="targetPoint" />
          </mxGeometry>
        </mxCell>
        <mxCell id="ntlgDtmpYtMD1ZbxN-xk-36" value="" style="endArrow=none;html=1;rounded=0;entryX=0;entryY=0.5;entryDx=0;entryDy=0;" parent="1" source="ntlgDtmpYtMD1ZbxN-xk-34" target="ntlgDtmpYtMD1ZbxN-xk-13" edge="1">
          <mxGeometry width="50" height="50" relative="1" as="geometry">
            <mxPoint x="150" y="500" as="sourcePoint" />
            <mxPoint x="200" y="450" as="targetPoint" />
          </mxGeometry>
        </mxCell>
        <mxCell id="ntlgDtmpYtMD1ZbxN-xk-37" value="Firewall" style="rounded=0;whiteSpace=wrap;html=1;" parent="1" vertex="1">
          <mxGeometry x="488" y="390" width="120" height="21" as="geometry" />
        </mxCell>
        <mxCell id="ntlgDtmpYtMD1ZbxN-xk-38" value="Filter Firewall" style="rounded=0;whiteSpace=wrap;html=1;" parent="1" vertex="1">
          <mxGeometry x="510" y="230.5" width="120" height="21" as="geometry" />
        </mxCell>
        <mxCell id="paTNNUHIue7FyL3yd7r2-1" value="OpenWRT" style="rounded=0;whiteSpace=wrap;html=1;" parent="1" vertex="1">
          <mxGeometry x="510" y="259" width="120" height="21" as="geometry" />
        </mxCell>
        <mxCell id="paTNNUHIue7FyL3yd7r2-2" value="" style="endArrow=none;html=1;rounded=0;entryX=0.417;entryY=0.013;entryDx=0;entryDy=0;exitX=1;exitY=0.25;exitDx=0;exitDy=0;entryPerimeter=0;" parent="1" target="paTNNUHIue7FyL3yd7r2-1" edge="1">
          <mxGeometry width="50" height="50" relative="1" as="geometry">
            <mxPoint x="560" y="251.5" as="sourcePoint" />
            <mxPoint x="620" y="251.5" as="targetPoint" />
          </mxGeometry>
        </mxCell>
        <mxCell id="LZtWBXRCKDIgFHdnGqxz-1" value="WAN&lt;div&gt;(Home Network)&lt;/div&gt;" style="rounded=0;whiteSpace=wrap;html=1;" vertex="1" parent="1">
          <mxGeometry x="300" y="600" width="160" height="80" as="geometry" />
        </mxCell>
        <mxCell id="LZtWBXRCKDIgFHdnGqxz-2" value="" style="endArrow=none;html=1;rounded=0;entryX=0.5;entryY=1;entryDx=0;entryDy=0;exitX=0.5;exitY=0;exitDx=0;exitDy=0;" edge="1" parent="1" source="LZtWBXRCKDIgFHdnGqxz-3" target="LZtWBXRCKDIgFHdnGqxz-1">
          <mxGeometry width="50" height="50" relative="1" as="geometry">
            <mxPoint x="380" y="760" as="sourcePoint" />
            <mxPoint x="290" y="830" as="targetPoint" />
          </mxGeometry>
        </mxCell>
        <mxCell id="LZtWBXRCKDIgFHdnGqxz-3" value="Switch&lt;div&gt;Red Team&lt;/div&gt;&lt;div&gt;&lt;i&gt;The Internet&lt;/i&gt;&lt;/div&gt;" style="rounded=0;whiteSpace=wrap;html=1;" vertex="1" parent="1">
          <mxGeometry x="300" y="750" width="160" height="80" as="geometry" />
        </mxCell>
        <mxCell id="LZtWBXRCKDIgFHdnGqxz-4" value="Filter Proxmox&lt;div&gt;&lt;br&gt;&lt;/div&gt;&lt;div&gt;&lt;br&gt;&lt;/div&gt;&lt;div&gt;&lt;br&gt;&lt;/div&gt;&lt;div&gt;&lt;br&gt;&lt;/div&gt;" style="rounded=0;whiteSpace=wrap;html=1;" vertex="1" parent="1">
          <mxGeometry x="520" y="750" width="160" height="80" as="geometry" />
        </mxCell>
        <mxCell id="LZtWBXRCKDIgFHdnGqxz-5" value="" style="endArrow=none;html=1;rounded=0;entryX=0;entryY=0.25;entryDx=0;entryDy=0;exitX=1;exitY=0.25;exitDx=0;exitDy=0;" edge="1" parent="1" source="LZtWBXRCKDIgFHdnGqxz-3" target="LZtWBXRCKDIgFHdnGqxz-4">
          <mxGeometry width="50" height="50" relative="1" as="geometry">
            <mxPoint x="440" y="880" as="sourcePoint" />
            <mxPoint x="490" y="830" as="targetPoint" />
          </mxGeometry>
        </mxCell>
        <mxCell id="LZtWBXRCKDIgFHdnGqxz-6" style="edgeStyle=orthogonalEdgeStyle;rounded=0;orthogonalLoop=1;jettySize=auto;html=1;" edge="1" parent="1" source="LZtWBXRCKDIgFHdnGqxz-7">
          <mxGeometry relative="1" as="geometry">
            <mxPoint x="495" y="770" as="targetPoint" />
            <Array as="points">
              <mxPoint x="495" y="760" />
            </Array>
          </mxGeometry>
        </mxCell>
        <mxCell id="LZtWBXRCKDIgFHdnGqxz-7" value="VLAN 11 tagged WAN traffic" style="text;html=1;align=center;verticalAlign=middle;resizable=1;points=[];autosize=1;strokeColor=none;fillColor=none;" vertex="1" parent="1">
          <mxGeometry x="410" y="726" width="170" height="20" as="geometry" />
        </mxCell>
        <mxCell id="LZtWBXRCKDIgFHdnGqxz-8" value="" style="endArrow=none;html=1;rounded=0;entryX=0;entryY=0.75;entryDx=0;entryDy=0;exitX=1;exitY=0.75;exitDx=0;exitDy=0;" edge="1" parent="1" source="LZtWBXRCKDIgFHdnGqxz-3" target="LZtWBXRCKDIgFHdnGqxz-4">
          <mxGeometry width="50" height="50" relative="1" as="geometry">
            <mxPoint x="450" y="900" as="sourcePoint" />
            <mxPoint x="500" y="850" as="targetPoint" />
          </mxGeometry>
        </mxCell>
        <mxCell id="LZtWBXRCKDIgFHdnGqxz-9" value="Tagged VLAN 12 traffic" style="text;html=1;align=center;verticalAlign=middle;resizable=1;points=[];autosize=1;strokeColor=none;fillColor=none;" vertex="1" parent="1">
          <mxGeometry x="415" y="823" width="150" height="30" as="geometry" />
        </mxCell>
        <mxCell id="LZtWBXRCKDIgFHdnGqxz-10" value="Switch&lt;div&gt;Blue Team&lt;/div&gt;" style="rounded=0;whiteSpace=wrap;html=1;" vertex="1" parent="1">
          <mxGeometry x="320" y="900" width="120" height="60" as="geometry" />
        </mxCell>
        <mxCell id="LZtWBXRCKDIgFHdnGqxz-11" value="" style="endArrow=none;html=1;rounded=0;entryX=0.5;entryY=1;entryDx=0;entryDy=0;exitX=0.5;exitY=0;exitDx=0;exitDy=0;" edge="1" parent="1" source="LZtWBXRCKDIgFHdnGqxz-10" target="LZtWBXRCKDIgFHdnGqxz-3">
          <mxGeometry width="50" height="50" relative="1" as="geometry">
            <mxPoint x="320" y="900" as="sourcePoint" />
            <mxPoint x="370" y="850" as="targetPoint" />
          </mxGeometry>
        </mxCell>
        <mxCell id="LZtWBXRCKDIgFHdnGqxz-12" value="Proxmox&lt;div&gt;&lt;br&gt;&lt;/div&gt;&lt;div&gt;&lt;br&gt;&lt;/div&gt;&lt;div&gt;&lt;br&gt;&lt;/div&gt;" style="rounded=0;whiteSpace=wrap;html=1;" vertex="1" parent="1">
          <mxGeometry x="510" y="900" width="136" height="60.75" as="geometry" />
        </mxCell>
        <mxCell id="LZtWBXRCKDIgFHdnGqxz-13" value="" style="endArrow=none;html=1;rounded=0;entryX=0;entryY=0.25;entryDx=0;entryDy=0;exitX=1;exitY=0.25;exitDx=0;exitDy=0;" edge="1" parent="1" source="LZtWBXRCKDIgFHdnGqxz-10" target="LZtWBXRCKDIgFHdnGqxz-12">
          <mxGeometry width="50" height="50" relative="1" as="geometry">
            <mxPoint x="440" y="911" as="sourcePoint" />
            <mxPoint x="470" y="971" as="targetPoint" />
          </mxGeometry>
        </mxCell>
        <mxCell id="LZtWBXRCKDIgFHdnGqxz-14" style="edgeStyle=orthogonalEdgeStyle;rounded=0;orthogonalLoop=1;jettySize=auto;html=1;" edge="1" parent="1" source="LZtWBXRCKDIgFHdnGqxz-15">
          <mxGeometry relative="1" as="geometry">
            <mxPoint x="475" y="911" as="targetPoint" />
            <Array as="points">
              <mxPoint x="475" y="901" />
            </Array>
          </mxGeometry>
        </mxCell>
        <mxCell id="LZtWBXRCKDIgFHdnGqxz-15" value="x2 VLAN 1&lt;span style=&quot;background-color: initial;&quot;&gt;1 tagged WAN traffic&lt;/span&gt;" style="text;html=1;align=center;verticalAlign=middle;resizable=1;points=[];autosize=1;strokeColor=none;fillColor=none;" vertex="1" parent="1">
          <mxGeometry x="380" y="873" width="190" height="30" as="geometry" />
        </mxCell>
        <mxCell id="LZtWBXRCKDIgFHdnGqxz-16" value="" style="endArrow=none;html=1;rounded=0;entryX=0;entryY=0.75;entryDx=0;entryDy=0;exitX=1;exitY=0.75;exitDx=0;exitDy=0;" edge="1" parent="1" source="LZtWBXRCKDIgFHdnGqxz-10" target="LZtWBXRCKDIgFHdnGqxz-12">
          <mxGeometry width="50" height="50" relative="1" as="geometry">
            <mxPoint x="440" y="951" as="sourcePoint" />
            <mxPoint x="480" y="991" as="targetPoint" />
          </mxGeometry>
        </mxCell>
        <mxCell id="LZtWBXRCKDIgFHdnGqxz-35" style="edgeStyle=orthogonalEdgeStyle;rounded=0;orthogonalLoop=1;jettySize=auto;html=1;" edge="1" parent="1" source="LZtWBXRCKDIgFHdnGqxz-18">
          <mxGeometry relative="1" as="geometry">
            <mxPoint x="470" y="950" as="targetPoint" />
          </mxGeometry>
        </mxCell>
        <mxCell id="LZtWBXRCKDIgFHdnGqxz-18" value="&lt;div&gt;&lt;span style=&quot;background-color: initial;&quot;&gt;Tagged [2,3] VLAN LAN traffic&lt;/span&gt;&lt;br&gt;&lt;/div&gt;" style="text;html=1;align=center;verticalAlign=middle;resizable=1;points=[];autosize=1;strokeColor=none;fillColor=none;" vertex="1" parent="1">
          <mxGeometry x="380" y="980" width="180" height="30" as="geometry" />
        </mxCell>
        <mxCell id="LZtWBXRCKDIgFHdnGqxz-19" value="" style="endArrow=classic;html=1;rounded=0;exitX=0.498;exitY=-0.074;exitDx=0;exitDy=0;exitPerimeter=0;" edge="1" parent="1" source="LZtWBXRCKDIgFHdnGqxz-9">
          <mxGeometry width="50" height="50" relative="1" as="geometry">
            <mxPoint x="500" y="890" as="sourcePoint" />
            <mxPoint x="490" y="810" as="targetPoint" />
          </mxGeometry>
        </mxCell>
        <mxCell id="LZtWBXRCKDIgFHdnGqxz-20" value="Untagged VLAN traffic" style="text;html=1;align=center;verticalAlign=middle;resizable=1;points=[];autosize=1;strokeColor=none;fillColor=none;" vertex="1" parent="1">
          <mxGeometry x="250" y="690" width="130" height="12" as="geometry" />
        </mxCell>
        <mxCell id="LZtWBXRCKDIgFHdnGqxz-21" value="Goes to tagged port (11)" style="text;html=1;align=center;verticalAlign=middle;resizable=1;points=[];autosize=1;strokeColor=none;fillColor=none;" vertex="1" parent="1">
          <mxGeometry x="230" y="726" width="160" height="30" as="geometry" />
        </mxCell>
        <mxCell id="LZtWBXRCKDIgFHdnGqxz-22" value="Tagged VLAN 12 traffic" style="text;html=1;align=center;verticalAlign=middle;resizable=1;points=[];autosize=1;strokeColor=none;fillColor=none;" vertex="1" parent="1">
          <mxGeometry x="240" y="829" width="150" height="30" as="geometry" />
        </mxCell>
        <mxCell id="LZtWBXRCKDIgFHdnGqxz-23" value="Goes to tagged port (12)" style="text;html=1;align=center;verticalAlign=middle;resizable=1;points=[];autosize=1;strokeColor=none;fillColor=none;" vertex="1" parent="1">
          <mxGeometry x="230" y="873" width="160" height="30" as="geometry" />
        </mxCell>
        <mxCell id="LZtWBXRCKDIgFHdnGqxz-24" value="Red Team" style="rounded=0;whiteSpace=wrap;html=1;" vertex="1" parent="1">
          <mxGeometry x="145" y="760" width="120" height="60" as="geometry" />
        </mxCell>
        <mxCell id="LZtWBXRCKDIgFHdnGqxz-25" value="Blue Team" style="rounded=0;whiteSpace=wrap;html=1;" vertex="1" parent="1">
          <mxGeometry x="140" y="900.75" width="120" height="60" as="geometry" />
        </mxCell>
        <mxCell id="LZtWBXRCKDIgFHdnGqxz-26" value="" style="endArrow=none;html=1;rounded=0;entryX=0;entryY=0.5;entryDx=0;entryDy=0;exitX=1;exitY=0.5;exitDx=0;exitDy=0;" edge="1" parent="1" source="LZtWBXRCKDIgFHdnGqxz-24" target="LZtWBXRCKDIgFHdnGqxz-3">
          <mxGeometry width="50" height="50" relative="1" as="geometry">
            <mxPoint x="220" y="830" as="sourcePoint" />
            <mxPoint x="270" y="780" as="targetPoint" />
          </mxGeometry>
        </mxCell>
        <mxCell id="LZtWBXRCKDIgFHdnGqxz-27" value="" style="endArrow=none;html=1;rounded=0;entryX=0;entryY=0.5;entryDx=0;entryDy=0;" edge="1" parent="1" source="LZtWBXRCKDIgFHdnGqxz-25" target="LZtWBXRCKDIgFHdnGqxz-10">
          <mxGeometry width="50" height="50" relative="1" as="geometry">
            <mxPoint x="180" y="1040" as="sourcePoint" />
            <mxPoint x="230" y="990" as="targetPoint" />
          </mxGeometry>
        </mxCell>
        <mxCell id="LZtWBXRCKDIgFHdnGqxz-28" value="Firewall" style="rounded=0;whiteSpace=wrap;html=1;" vertex="1" parent="1">
          <mxGeometry x="519" y="916" width="120" height="21" as="geometry" />
        </mxCell>
        <mxCell id="LZtWBXRCKDIgFHdnGqxz-29" value="Filter Firewall" style="rounded=0;whiteSpace=wrap;html=1;" vertex="1" parent="1">
          <mxGeometry x="540" y="770.5" width="120" height="21" as="geometry" />
        </mxCell>
        <mxCell id="LZtWBXRCKDIgFHdnGqxz-30" value="OpenWRT" style="rounded=0;whiteSpace=wrap;html=1;" vertex="1" parent="1">
          <mxGeometry x="540" y="799" width="120" height="21" as="geometry" />
        </mxCell>
        <mxCell id="LZtWBXRCKDIgFHdnGqxz-31" value="" style="endArrow=none;html=1;rounded=0;entryX=0.417;entryY=0.013;entryDx=0;entryDy=0;exitX=1;exitY=0.25;exitDx=0;exitDy=0;entryPerimeter=0;" edge="1" parent="1" target="LZtWBXRCKDIgFHdnGqxz-30">
          <mxGeometry width="50" height="50" relative="1" as="geometry">
            <mxPoint x="590" y="791.5" as="sourcePoint" />
            <mxPoint x="650" y="791.5" as="targetPoint" />
          </mxGeometry>
        </mxCell>
        <mxCell id="LZtWBXRCKDIgFHdnGqxz-32" value="Firewall" style="rounded=0;whiteSpace=wrap;html=1;" vertex="1" parent="1">
          <mxGeometry x="519" y="938" width="120" height="21" as="geometry" />
        </mxCell>
        <mxCell id="LZtWBXRCKDIgFHdnGqxz-36" value="&lt;font style=&quot;font-size: 22px;&quot;&gt;Two Networks with One Computer&lt;/font&gt;" style="text;html=1;align=center;verticalAlign=middle;resizable=1;points=[];autosize=1;strokeColor=none;fillColor=none;" vertex="1" parent="1">
          <mxGeometry x="205" y="560" width="350" height="40" as="geometry" />
        </mxCell>
        <mxCell id="LZtWBXRCKDIgFHdnGqxz-37" value="&lt;font style=&quot;font-size: 22px;&quot;&gt;One Network with One Computer&lt;/font&gt;" style="text;html=1;align=center;verticalAlign=middle;resizable=1;points=[];autosize=1;strokeColor=none;fillColor=none;" vertex="1" parent="1">
          <mxGeometry x="180" y="20" width="340" height="40" as="geometry" />
        </mxCell>
      </root>
    </mxGraphModel>
  </diagram>
</mxfile>
